<mxfile host="65bd71144e">
    <diagram id="lYW3jdAweNiJyxbnWcym" name="第 1 页">
        <mxGraphModel dx="900" dy="392" grid="1" gridSize="10" guides="1" tooltips="1" connect="1" arrows="1" fold="1" page="1" pageScale="1" pageWidth="827" pageHeight="1169" math="0" shadow="0">
            <root>
                <mxCell id="0"/>
                <mxCell id="1" parent="0"/>
                <mxCell id="2" value="" style="rounded=0;whiteSpace=wrap;html=1;" vertex="1" parent="1">
                    <mxGeometry x="210" y="70" width="450" height="330" as="geometry"/>
                </mxCell>
                <mxCell id="4" value="" style="line;strokeWidth=2;html=1;fontFamily=Helvetica;fontSize=18;fontColor=default;fillColor=none;gradientColor=none;" vertex="1" parent="1">
                    <mxGeometry x="210" y="120" width="450" height="20" as="geometry"/>
                </mxCell>
                <mxCell id="5" value="header" style="text;strokeColor=none;fillColor=none;html=1;fontSize=24;fontStyle=1;verticalAlign=middle;align=center;fontFamily=Helvetica;fontColor=default;" vertex="1" parent="1">
                    <mxGeometry x="120" y="97.5" width="90" height="25" as="geometry"/>
                </mxCell>
                <mxCell id="6" value="app" style="text;strokeColor=none;fillColor=none;html=1;fontSize=24;fontStyle=1;verticalAlign=middle;align=center;fontFamily=Helvetica;fontColor=default;" vertex="1" parent="1">
                    <mxGeometry x="360" y="30" width="90" height="25" as="geometry"/>
                </mxCell>
                <mxCell id="8" value="&lt;font style=&quot;font-size: 14px;&quot;&gt;header-circle&lt;/font&gt;" style="rounded=0;whiteSpace=wrap;html=1;fontFamily=Helvetica;fontSize=18;fontColor=default;fillColor=none;gradientColor=none;" vertex="1" parent="1">
                    <mxGeometry x="230" y="90" width="90" height="20" as="geometry"/>
                </mxCell>
                <mxCell id="9" value="&lt;font style=&quot;font-size: 14px;&quot;&gt;header-menu&lt;/font&gt;" style="rounded=0;whiteSpace=wrap;html=1;fontFamily=Helvetica;fontSize=18;fontColor=default;fillColor=none;gradientColor=none;" vertex="1" parent="1">
                    <mxGeometry x="340" y="90" width="90" height="20" as="geometry"/>
                </mxCell>
                <mxCell id="10" value="&lt;font style=&quot;font-size: 14px;&quot;&gt;search-bar&lt;/font&gt;" style="rounded=0;whiteSpace=wrap;html=1;fontFamily=Helvetica;fontSize=18;fontColor=default;fillColor=none;gradientColor=none;" vertex="1" parent="1">
                    <mxGeometry x="450" y="90" width="90" height="20" as="geometry"/>
                </mxCell>
                <mxCell id="11" value="&lt;span style=&quot;font-size: 14px;&quot;&gt;header-profile&lt;/span&gt;" style="rounded=0;whiteSpace=wrap;html=1;fontFamily=Helvetica;fontSize=18;fontColor=default;fillColor=none;gradientColor=none;" vertex="1" parent="1">
                    <mxGeometry x="560" y="90" width="90" height="20" as="geometry"/>
                </mxCell>
                <mxCell id="12" value="wrapper" style="text;strokeColor=none;fillColor=none;html=1;fontSize=24;fontStyle=1;verticalAlign=middle;align=center;fontFamily=Helvetica;fontColor=default;" vertex="1" parent="1">
                    <mxGeometry x="110" y="200" width="90" height="25" as="geometry"/>
                </mxCell>
                <mxCell id="13" value="" style="line;strokeWidth=2;direction=south;html=1;fontFamily=Helvetica;fontSize=14;fontColor=default;fillColor=none;gradientColor=none;" vertex="1" parent="1">
                    <mxGeometry x="280" y="130" width="10" height="270" as="geometry"/>
                </mxCell>
                <mxCell id="14" value="&lt;font style=&quot;font-size: 14px;&quot;&gt;left-side&lt;/font&gt;" style="text;html=1;strokeColor=none;fillColor=none;align=center;verticalAlign=middle;whiteSpace=wrap;rounded=0;fontFamily=Helvetica;fontSize=14;fontColor=default;" vertex="1" parent="1">
                    <mxGeometry x="220" y="130" width="60" height="30" as="geometry"/>
                </mxCell>
                <mxCell id="15" value="" style="rounded=0;whiteSpace=wrap;html=1;fontFamily=Helvetica;fontSize=14;fontColor=default;fillColor=none;gradientColor=none;" vertex="1" parent="1">
                    <mxGeometry x="220" y="133.75" width="60" height="256.25" as="geometry"/>
                </mxCell>
                <mxCell id="16" value="side-wraper&lt;br&gt;&lt;br&gt;side-munu" style="rounded=0;whiteSpace=wrap;html=1;fontFamily=Helvetica;fontSize=14;fontColor=default;fillColor=none;gradientColor=none;" vertex="1" parent="1">
                    <mxGeometry x="225" y="162.5" width="50" height="100" as="geometry"/>
                </mxCell>
                <mxCell id="18" value="" style="rounded=0;whiteSpace=wrap;html=1;fontFamily=Helvetica;fontSize=14;fontColor=default;fillColor=none;gradientColor=none;" vertex="1" parent="1">
                    <mxGeometry x="300" y="170" width="350" height="220" as="geometry"/>
                </mxCell>
                <mxCell id="19" value="main-container" style="text;html=1;strokeColor=none;fillColor=none;align=center;verticalAlign=middle;whiteSpace=wrap;rounded=0;fontFamily=Helvetica;fontSize=14;fontColor=default;" vertex="1" parent="1">
                    <mxGeometry x="300" y="133.75" width="120" height="30" as="geometry"/>
                </mxCell>
                <mxCell id="23" value="" style="rounded=0;whiteSpace=wrap;html=1;fontFamily=Helvetica;fontSize=14;fontColor=default;fillColor=none;gradientColor=none;" vertex="1" parent="1">
                    <mxGeometry x="310" y="182.5" width="330" height="57.5" as="geometry"/>
                </mxCell>
                <mxCell id="24" value="main-header" style="text;html=1;strokeColor=none;fillColor=none;align=center;verticalAlign=middle;whiteSpace=wrap;rounded=0;fontFamily=Helvetica;fontSize=14;fontColor=default;" vertex="1" parent="1">
                    <mxGeometry x="320" y="197.5" width="110" height="30" as="geometry"/>
                </mxCell>
                <mxCell id="25" value="" style="rounded=0;whiteSpace=wrap;html=1;fontFamily=Helvetica;fontSize=14;fontColor=default;fillColor=none;gradientColor=none;" vertex="1" parent="1">
                    <mxGeometry x="310" y="250" width="330" height="57.5" as="geometry"/>
                </mxCell>
                <mxCell id="26" value="content-section" style="text;html=1;strokeColor=none;fillColor=none;align=center;verticalAlign=middle;whiteSpace=wrap;rounded=0;fontFamily=Helvetica;fontSize=14;fontColor=default;" vertex="1" parent="1">
                    <mxGeometry x="320" y="262.5" width="120" height="30" as="geometry"/>
                </mxCell>
                <mxCell id="27" value="" style="rounded=0;whiteSpace=wrap;html=1;fontFamily=Helvetica;fontSize=14;fontColor=default;fillColor=none;gradientColor=none;" vertex="1" parent="1">
                    <mxGeometry x="310" y="320" width="330" height="57.5" as="geometry"/>
                </mxCell>
                <mxCell id="36" value="content-section" style="text;html=1;strokeColor=none;fillColor=none;align=center;verticalAlign=middle;whiteSpace=wrap;rounded=0;fontFamily=Helvetica;fontSize=14;fontColor=default;" vertex="1" parent="1">
                    <mxGeometry x="320" y="333.75" width="120" height="30" as="geometry"/>
                </mxCell>
            </root>
        </mxGraphModel>
    </diagram>
</mxfile>